<?xml version="1.0" encoding="UTF-8" standalone="no"?>
<!-- Created with Inkscape (http://www.inkscape.org/) -->

<svg
   xmlns:dc="http://purl.org/dc/elements/1.1/"
   xmlns:cc="http://creativecommons.org/ns#"
   xmlns:rdf="http://www.w3.org/1999/02/22-rdf-syntax-ns#"
   xmlns:svg="http://www.w3.org/2000/svg"
   xmlns="http://www.w3.org/2000/svg"
   xmlns:sodipodi="http://sodipodi.sourceforge.net/DTD/sodipodi-0.dtd"
   xmlns:inkscape="http://www.inkscape.org/namespaces/inkscape"
   width="160"
   height="160"
   viewBox="0 0 160 160.00001"
   version="1.1"
   id="svg8"
   inkscape:version="0.92.3 (2405546, 2018-03-11)"
   sodipodi:docname="drawing-1.svg">
  <defs
     id="defs2" />
  <sodipodi:namedview
     id="base"
     pagecolor="#ffffff"
     bordercolor="#666666"
     borderopacity="1.0"
     inkscape:pageopacity="0.0"
     inkscape:pageshadow="2"
     inkscape:zoom="1.6"
     inkscape:cx="-151.42857"
     inkscape:cy="116.80195"
     inkscape:document-units="px"
     inkscape:current-layer="layer1"
     showgrid="false"
     units="px" />
  <metadata
     id="metadata5">
    <rdf:RDF>
      <cc:Work
         rdf:about="">
        <dc:format>image/svg+xml</dc:format>
        <dc:type
           rdf:resource="http://purl.org/dc/dcmitype/StillImage" />
        <dc:title></dc:title>
      </cc:Work>
    </rdf:RDF>
  </metadata>
  <g
     inkscape:label="Layer 1"
     inkscape:groupmode="layer"
     id="layer1"
     transform="translate(0,-962.51965)">
    <g
       id="g868"
       transform="matrix(0.89398078,0,0,0.89398078,-0.18980799,101.8558)">
      <circle
         id="XMLID_62_"
         class="st0"
         cx="79.912018"
         cy="1042.4316"
         r="69.912018"
         style="fill:#0091ea;fill-opacity:1;stroke-width:0.20887962" />
      <path
         style="fill:#ffffff;stroke-width:0.20887962"
         inkscape:connector-curvature="0"
         d="m 122.79501,1034.16 c -0.58486,-13.2429 -11.4675,-23.7496 -24.835793,-23.7496 -7.415226,0 -14.099369,3.2795 -18.652948,8.4179 -4.553579,-5.1384 -11.237722,-8.4179 -18.652951,-8.4179 -13.096753,0 -23.833165,10.089 -24.794012,23.0186 -0.04178,0.2715 -0.04178,0.6266 -0.04178,0.9609 v 28.0525 c 0,3.4465 2.778099,6.2246 6.224613,6.2246 h 0.146215 c 3.446514,0 6.224613,-2.7781 6.224613,-6.2246 v -27.1544 h 0.04178 c 0,-6.8304 5.556198,-12.3657 12.365674,-12.3657 6.830365,0 12.365676,5.5563 12.365676,12.3657 h 0.04176 v 22.9141 c 0,3.4465 2.7781,6.2246 6.224618,6.2246 h 0.146217 c 3.44651,0 6.224611,-2.7781 6.224611,-6.2246 v -22.9768 c 0.04176,-6.8303 5.556201,-12.2821 12.365669,-12.2821 6.809478,0 12.428338,5.5771 12.428338,12.3866 h 0.0418 v 27.1961 c 0,3.4047 2.7781,6.1411 6.14106,6.1411 h 0.14622 c 3.40473,0 6.14106,-2.7781 6.14106,-6.1411 v -27.7392 c -0.29244,-0.3133 -0.29244,-0.4595 -0.29244,-0.6267 z"
         class="st1"
         id="XMLID_61_" />
      <path
         style="fill:#ffffff;stroke-width:0.20887962"
         inkscape:connector-curvature="0"
         d="m 99.296052,1071.0899 c -0.271545,-0.4594 -1.190618,0.4596 -1.190618,0.4596 -3.446508,3.739 -10.590191,6.1411 -18.00542,6.1411 -7.415228,0 -14.517133,-2.4021 -18.005427,-6.1411 0,0 -0.91907,-0.9609 -1.190614,-0.4596 -0.355095,0.5432 0.187992,1.4204 0.187992,1.4204 4.407359,6.3709 11.133289,9.2325 19.008049,9.2325 7.874761,0 14.600683,-2.8616 19.008042,-9.2325 0.04176,-0.02 0.54309,-0.8772 0.187996,-1.4204 z"
         class="st1"
         id="XMLID_60_" />
    </g>
    <g
       id="g863"
       transform="matrix(1.2170347,0,0,1.2170347,-31.3052,-240.20539)">
      <path
         id="path917"
         d="m 129.45827,1072.8178 c -10.58151,0 -19.16017,8.5786 -19.16017,19.1602 0,10.5815 8.57866,19.1601 19.16017,19.1601 10.58152,0 19.16016,-8.5786 19.16016,-19.1601 0,-10.5816 -8.57864,-19.1602 -19.16016,-19.1602 z"
         style="fill:#008000;fill-opacity:1;stroke:#ffffff;stroke-width:2.7631321;stroke-miterlimit:4;stroke-dasharray:none;stroke-opacity:1"
         inkscape:connector-curvature="0" />
      <path
         id="path90"
         d="m 129.45826,1103.0292 -14.56761,-9.9494 h 9.88504 v -12.1532 h 9.36424 v 12.1532 h 9.88596 z"
         style="fill:#ffffff;stroke:none;stroke-width:2.24799943;stroke-miterlimit:4;stroke-dasharray:none;stroke-opacity:1"
         inkscape:connector-curvature="0" />
    </g>
  </g>
  <style
     id="style34"
     type="text/css">
	.st0{fill:#0091EA;}
	.st1{fill:#FFFFFF;}
</style>
</svg>
