<?xml version="1.0" encoding="UTF-8" standalone="no"?>
<svg
   xmlns:dc="http://purl.org/dc/elements/1.1/"
   xmlns:cc="http://creativecommons.org/ns#"
   xmlns:rdf="http://www.w3.org/1999/02/22-rdf-syntax-ns#"
   xmlns:svg="http://www.w3.org/2000/svg"
   xmlns="http://www.w3.org/2000/svg"
   xmlns:sodipodi="http://sodipodi.sourceforge.net/DTD/sodipodi-0.dtd"
   xmlns:inkscape="http://www.inkscape.org/namespaces/inkscape"
   version="1.1"
   id="Layer_1"
   x="0px"
   y="0px"
   viewBox="222 -264.9 700 700"
   style="enable-background:new 222 -264.9 700 700;"
   xml:space="preserve"
   sodipodi:docname="icon.svg"
   inkscape:export-filename="C:\Users\Mohsen\Desktop\myket\icons\96.png"
   inkscape:export-xdpi="13.165714"
   inkscape:export-ydpi="13.165714"
   inkscape:version="0.92.3 (2405546, 2018-03-11)"><sodipodi:namedview
   pagecolor="#ffffff"
   bordercolor="#666666"
   borderopacity="1"
   objecttolerance="10"
   gridtolerance="10"
   guidetolerance="10"
   inkscape:pageopacity="0"
   inkscape:pageshadow="2"
   inkscape:window-width="1920"
   inkscape:window-height="990"
   id="namedview839"
   showgrid="false"
   inkscape:zoom="1.1085714"
   inkscape:cx="350"
   inkscape:cy="350"
   inkscape:window-x="-5"
   inkscape:window-y="-5"
   inkscape:window-maximized="1"
   inkscape:current-layer="Layer_1" /><metadata
   id="metadata4548"><rdf:RDF><cc:Work
       rdf:about=""><dc:format>image/svg+xml</dc:format><dc:type
         rdf:resource="http://purl.org/dc/dcmitype/StillImage" /><dc:title /></cc:Work></rdf:RDF></metadata><defs
   id="defs4546" />
<style
   type="text/css"
   id="style4534">
	.st0{fill:#0091EA;}
	.st1{fill:#FFFFFF;}
</style>
<g
   id="XMLID_46_">
	<g
   id="XMLID_45_">
		<g
   id="XMLID_58_">
			<circle
   id="XMLID_62_"
   class="st0"
   cx="572"
   cy="85.099998"
   r="334.70001"
   style="display:inline;fill:#62b01e;fill-opacity:1" />
			<g
   id="XMLID_59_">
				<path
   id="XMLID_61_"
   class="st1"
   d="m 777.3,45.5 c -2.8,-63.4 -54.9,-113.7 -118.9,-113.7 -35.5,0 -67.5,15.7 -89.3,40.3 -21.8,-24.6 -53.8,-40.3 -89.3,-40.3 -62.7,0 -114.1,48.3 -118.7,110.2 -0.2,1.3 -0.2,3 -0.2,4.6 v 134.3 c 0,16.5 13.3,29.8 29.8,29.8 h 0.7 c 16.5,0 29.8,-13.3 29.8,-29.8 v -130 h 0.2 c 0,-32.7 26.6,-59.2 59.2,-59.2 32.7,0 59.2,26.6 59.2,59.2 h 0.2 v 109.7 c 0,16.5 13.3,29.8 29.8,29.8 h 0.7 c 16.5,0 29.8,-13.3 29.8,-29.8 v -110 c 0.2,-32.7 26.6,-58.8 59.2,-58.8 32.6,0 59.5,26.7 59.5,59.3 h 0.2 v 130.2 c 0,16.3 13.3,29.4 29.4,29.4 h 0.7 c 16.3,0 29.4,-13.3 29.4,-29.4 V 48.5 c -1.4,-1.5 -1.4,-2.2 -1.4,-3 z"
   style="display:inline;fill:#ffffff" />
				<path
   id="XMLID_60_"
   class="st1"
   d="m 664.8,222.86875 c -1.3,-4.00435 -5.7,4.00435 -5.7,4.00435 -16.5,32.58086 -50.7,53.5127 -86.2,53.5127 -35.5,0 -69.5,-20.93184 -86.2,-53.5127 0,0 -4.4,-8.37274 -5.7,-4.00435 -1.7,4.73241 0.9,12.37709 0.9,12.37709 21.1,55.51488 53.3,80.45107 91,80.45107 37.7,0 69.9,-24.93619 91,-80.45107 0.2,-0.18202 2.6,-7.64468 0.9,-12.37709 z"
   style="display:inline;fill:#ffffff;stroke-width:1.34913301" />
			</g>
		</g>
	</g>
</g>
</svg>