<?xml version="1.0" encoding="utf-8"?>
<!-- Generator: Adobe Illustrator 19.0.0, SVG Export Plug-In . SVG Version: 6.00 Build 0)  -->
<svg version="1.1" id="Layer_1" xmlns="http://www.w3.org/2000/svg" xmlns:xlink="http://www.w3.org/1999/xlink" x="0px" y="0px"
	 viewBox="222 -264.9 700 700" style="enable-background:new 222 -264.9 700 700;" xml:space="preserve">
<style type="text/css">
	.st0{fill:#0091EA;}
	.st1{fill:#FFFFFF;}
</style>
<g id="XMLID_46_">
	<g id="XMLID_45_">
		<g id="XMLID_58_">
			<circle id="XMLID_62_" class="st0" cx="572" cy="85.1" r="334.7"/>
			<g id="XMLID_59_">
				<path id="XMLID_61_" class="st1" d="M777.3,45.5c-2.8-63.4-54.9-113.7-118.9-113.7c-35.5,0-67.5,15.7-89.3,40.3
					c-21.8-24.6-53.8-40.3-89.3-40.3c-62.7,0-114.1,48.3-118.7,110.2c-0.2,1.3-0.2,3-0.2,4.6v134.3c0,16.5,13.3,29.8,29.8,29.8h0.7
					c16.5,0,29.8-13.3,29.8-29.8v-130h0.2c0-32.7,26.6-59.2,59.2-59.2c32.7,0,59.2,26.6,59.2,59.2h0.2v109.7
					c0,16.5,13.3,29.8,29.8,29.8h0.7c16.5,0,29.8-13.3,29.8-29.8v-110c0.2-32.7,26.6-58.8,59.2-58.8S719,18.5,719,51.1h0.2v130.2
					c0,16.3,13.3,29.4,29.4,29.4h0.7c16.3,0,29.4-13.3,29.4-29.4V48.5C777.3,47,777.3,46.3,777.3,45.5z"/>
				<path id="XMLID_60_" class="st1" d="M664.8,222.3c-1.3-2.2-5.7,2.2-5.7,2.2c-16.5,17.9-50.7,29.4-86.2,29.4
					s-69.5-11.5-86.2-29.4c0,0-4.4-4.6-5.7-2.2c-1.7,2.6,0.9,6.8,0.9,6.8c21.1,30.5,53.3,44.2,91,44.2c37.7,0,69.9-13.7,91-44.2
					C664.1,229,666.5,224.9,664.8,222.3z"/>
			</g>
		</g>
	</g>
</g>
</svg>
