<?xml version="1.0" encoding="UTF-8" standalone="no"?>
<!-- Generator: Adobe Illustrator 19.0.0, SVG Export Plug-In . SVG Version: 6.00 Build 0)  -->

<svg
   xmlns:dc="http://purl.org/dc/elements/1.1/"
   xmlns:cc="http://creativecommons.org/ns#"
   xmlns:rdf="http://www.w3.org/1999/02/22-rdf-syntax-ns#"
   xmlns:svg="http://www.w3.org/2000/svg"
   xmlns="http://www.w3.org/2000/svg"
   xmlns:sodipodi="http://sodipodi.sourceforge.net/DTD/sodipodi-0.dtd"
   xmlns:inkscape="http://www.inkscape.org/namespaces/inkscape"
   version="1.1"
   id="Layer_1"
   x="0px"
   y="0px"
   viewBox="0 0 700 700"
   xml:space="preserve"
   sodipodi:docname="icon3.svg"
   width="700"
   height="700"
   inkscape:version="0.92.3 (2405546, 2018-03-11)"><metadata
   id="metadata48"><rdf:RDF><cc:Work
       rdf:about=""><dc:format>image/svg+xml</dc:format><dc:type
         rdf:resource="http://purl.org/dc/dcmitype/StillImage" /><dc:title></dc:title></cc:Work></rdf:RDF></metadata><defs
   id="defs46">
	

		
	
			
			
		
				
				
			</defs><sodipodi:namedview
   pagecolor="#ffffff"
   bordercolor="#666666"
   borderopacity="1"
   objecttolerance="10"
   gridtolerance="10"
   guidetolerance="10"
   inkscape:pageopacity="0"
   inkscape:pageshadow="2"
   inkscape:window-width="640"
   inkscape:window-height="480"
   id="namedview44"
   showgrid="false"
   inkscape:zoom="0.33714286"
   inkscape:cx="-172.0339"
   inkscape:cy="350"
   inkscape:current-layer="Layer_1" />
<style
   type="text/css"
   id="style34">
	.st0{fill:#0091EA;}
	.st1{fill:#FFFFFF;}
</style>
<circle
   style="fill:#0091ea;fill-opacity:1"
   r="334.70001"
   cy="350"
   cx="350"
   class="st0"
   id="XMLID_62_" /><path
   id="XMLID_61_"
   class="st1"
   d="M 555.3,310.4 C 552.5,247 500.4,196.7 436.4,196.7 c -35.5,0 -67.5,15.7 -89.3,40.3 -21.8,-24.6 -53.8,-40.3 -89.3,-40.3 -62.7,0 -114.1,48.3 -118.7,110.2 -0.2,1.3 -0.2,3 -0.2,4.6 v 134.3 c 0,16.5 13.3,29.8 29.8,29.8 h 0.7 c 16.5,0 29.8,-13.3 29.8,-29.8 v -130 h 0.2 c 0,-32.7 26.6,-59.2 59.2,-59.2 32.7,0 59.2,26.6 59.2,59.2 h 0.2 v 109.7 c 0,16.5 13.3,29.8 29.8,29.8 h 0.7 c 16.5,0 29.8,-13.3 29.8,-29.8 v -110 c 0.2,-32.7 26.6,-58.8 59.2,-58.8 32.6,0 59.5,26.7 59.5,59.3 h 0.2 v 130.2 c 0,16.3 13.3,29.4 29.4,29.4 h 0.7 c 16.3,0 29.4,-13.3 29.4,-29.4 V 313.4 c -1.4,-1.5 -1.4,-2.2 -1.4,-3 z"
   inkscape:connector-curvature="0"
   style="fill:#ffffff" /><path
   id="XMLID_60_"
   class="st1"
   d="m 442.8,487.2 c -1.3,-2.2 -5.7,2.2 -5.7,2.2 -16.5,17.9 -50.7,29.4 -86.2,29.4 -35.5,0 -69.5,-11.5 -86.2,-29.4 0,0 -4.4,-4.6 -5.7,-2.2 -1.7,2.6 0.9,6.8 0.9,6.8 21.1,30.5 53.3,44.2 91,44.2 37.7,0 69.9,-13.7 91,-44.2 0.2,-0.1 2.6,-4.2 0.9,-6.8 z"
   inkscape:connector-curvature="0"
   style="fill:#ffffff" />
<path
   inkscape:connector-curvature="0"
   style="fill:#0091ea;stroke:#ffffff;stroke-width:11.54345226;stroke-miterlimit:4;stroke-dasharray:none;stroke-opacity:1;fill-opacity:1"
   d="m 587.20002,495.4718 c -50.65843,0 -91.72828,41.06976 -91.72828,91.72831 0,50.65843 41.06985,91.72818 91.72828,91.72818 50.65846,0 91.72827,-41.06975 91.72827,-91.72818 0,-50.65855 -41.06981,-91.72831 -91.72827,-91.72831 z"
   id="path917" /><path
   inkscape:connector-curvature="0"
   style="fill:#ffffff;stroke:none;stroke-width:10.76217651;stroke-miterlimit:4;stroke-dasharray:none;stroke-opacity:1"
   d="m 587.19998,640.10753 -69.74166,-47.63234 h 47.32409 v -58.18264 h 44.83082 v 58.18264 h 47.32847 z"
   id="path90" /></svg>